<mxfile host="app.diagrams.net" modified="2023-12-01T23:52:05.461Z" agent="Mozilla/5.0 (X11; Linux x86_64; rv:121.0) Gecko/20100101 Firefox/121.0" etag="t0xigcAWntmAKieQWvzc" version="22.1.5" type="github">
  <diagram id="prtHgNgQTEPvFCAcTncT" name="Page-1">
    <mxGraphModel dx="1191" dy="1872" grid="1" gridSize="10" guides="1" tooltips="1" connect="1" arrows="1" fold="1" page="1" pageScale="1" pageWidth="827" pageHeight="1169" background="none" math="0" shadow="0">
      <root>
        <mxCell id="0" />
        <mxCell id="1" parent="0" />
        <mxCell id="IMbqO5Cv_9zsQHXl01Jr-2" value="" style="shape=image;imageAspect=0;aspect=fixed;verticalLabelPosition=bottom;verticalAlign=top;image=https://gzhls.at/i/75/25/3027525-l5.webp;" vertex="1" parent="1">
          <mxGeometry x="149" y="-1040" width="529.24" height="640" as="geometry" />
        </mxCell>
        <mxCell id="IMbqO5Cv_9zsQHXl01Jr-42" style="edgeStyle=orthogonalEdgeStyle;rounded=0;orthogonalLoop=1;jettySize=auto;html=1;" edge="1" parent="1" source="IMbqO5Cv_9zsQHXl01Jr-3" target="IMbqO5Cv_9zsQHXl01Jr-41">
          <mxGeometry relative="1" as="geometry" />
        </mxCell>
        <mxCell id="IMbqO5Cv_9zsQHXl01Jr-43" style="edgeStyle=orthogonalEdgeStyle;rounded=0;orthogonalLoop=1;jettySize=auto;html=1;" edge="1" parent="1" source="IMbqO5Cv_9zsQHXl01Jr-3" target="IMbqO5Cv_9zsQHXl01Jr-41">
          <mxGeometry relative="1" as="geometry" />
        </mxCell>
        <mxCell id="IMbqO5Cv_9zsQHXl01Jr-44" style="edgeStyle=orthogonalEdgeStyle;rounded=0;orthogonalLoop=1;jettySize=auto;html=1;fillColor=#fa6800;strokeColor=#C73500;endSize=10;startSize=10;" edge="1" parent="1" source="IMbqO5Cv_9zsQHXl01Jr-3" target="IMbqO5Cv_9zsQHXl01Jr-41">
          <mxGeometry relative="1" as="geometry" />
        </mxCell>
        <mxCell id="IMbqO5Cv_9zsQHXl01Jr-3" value="" style="pointerEvents=1;shadow=0;dashed=0;html=1;strokeColor=none;fillColor=#4495D1;labelPosition=center;verticalLabelPosition=bottom;verticalAlign=top;align=center;outlineConnect=0;shape=image;editableCssRules=.*;labelBackgroundColor=#ffffff;aspect=fixed;imageAspect=0;image=data:image/svg+xml,PHN2ZyB4bWxucz0iaHR0cDovL3d3dy53My5vcmcvMjAwMC9zdmciIHhtbG5zOnY9Imh0dHBzOi8vdmVjdGEuaW8vbmFubyIgd2lkdGg9IjE3IiBoZWlnaHQ9IjE1IiB2aWV3Qm94PSIwIDAgMTcgMTUiPiYjeGE7CTxzdHlsZSB0eXBlPSJ0ZXh0L2NzcyI+LnN0MCB7IGZpbGw6IHJnYigyNDQsIDEwMSwgNDkpOyB9IDwvc3R5bGU+JiN4YTsJPHBhdGggY2xhc3M9InN0MCIgZD0iTTIgN2gxNEw5IDB6bTcuNSAySDZ2NmgxLjV2LTJoMmExLjU0IDEuNTQgMCAwIDAgMS41LTEuNXYtMUExLjU0IDEuNTQgMCAwIDAgOS41IDl6bTAgMi41aC0ydi0xaDJ6bS00LjUtMVY5SDEuNUExLjU0IDEuNTQgMCAwIDAgMCAxMC41djNBMS41NCAxLjU0IDAgMCAwIDEuNSAxNUg1di0xLjVIMS41di0zek0xNS41IDl2NC41aC0yVjlIMTJ2NC41YTEuNTQgMS41NCAwIDAgMCAxLjUgMS41aDJhMS41NCAxLjU0IDAgMCAwIDEuNS0xLjVWOXoiLz4mI3hhOzwvc3ZnPg==;" vertex="1" parent="1">
          <mxGeometry x="380.9" y="-880" width="65.45" height="90" as="geometry" />
        </mxCell>
        <mxCell id="IMbqO5Cv_9zsQHXl01Jr-8" value="&lt;font color=&quot;#1c71d8&quot;&gt;&lt;b&gt;DDR5 32 Giga RAM X2 = 64 G&lt;br&gt;&lt;/b&gt;&amp;nbsp;&amp;nbsp;&amp;nbsp;&amp;nbsp;&amp;nbsp;&amp;nbsp;&amp;nbsp;&amp;nbsp;&amp;nbsp;&amp;nbsp;&amp;nbsp;&amp;nbsp;&amp;nbsp;&amp;nbsp;&amp;nbsp;&amp;nbsp;&amp;nbsp;&amp;nbsp;&amp;nbsp;&amp;nbsp;&amp;nbsp; dans slot 4x DDR5, Maximum Memory Capacity 192GB&lt;br&gt;Corsair Dominator Platinum DDR5 RGB 64 Go (2 x 32 Go) 6600 MHz CL40 &lt;br&gt;&lt;br&gt;&lt;/font&gt;" style="text;html=1;align=center;verticalAlign=middle;resizable=0;points=[];autosize=1;strokeColor=none;fillColor=none;" vertex="1" parent="1">
          <mxGeometry x="276" y="-1155" width="430" height="70" as="geometry" />
        </mxCell>
        <mxCell id="IMbqO5Cv_9zsQHXl01Jr-11" value="" style="edgeStyle=orthogonalEdgeStyle;rounded=0;orthogonalLoop=1;jettySize=auto;html=1;" edge="1" parent="1" source="IMbqO5Cv_9zsQHXl01Jr-9" target="IMbqO5Cv_9zsQHXl01Jr-10">
          <mxGeometry relative="1" as="geometry" />
        </mxCell>
        <mxCell id="IMbqO5Cv_9zsQHXl01Jr-12" style="edgeStyle=orthogonalEdgeStyle;rounded=0;orthogonalLoop=1;jettySize=auto;html=1;fillColor=#1ba1e2;strokeColor=#006EAF;" edge="1" parent="1" source="IMbqO5Cv_9zsQHXl01Jr-9" target="IMbqO5Cv_9zsQHXl01Jr-8">
          <mxGeometry relative="1" as="geometry" />
        </mxCell>
        <mxCell id="IMbqO5Cv_9zsQHXl01Jr-9" value="" style="pointerEvents=1;shadow=0;dashed=0;html=1;strokeColor=none;fillColor=#4495D1;labelPosition=center;verticalLabelPosition=bottom;verticalAlign=top;align=center;outlineConnect=0;shape=mxgraph.veeam.ram;rotation=90;" vertex="1" parent="1">
          <mxGeometry x="397.95" y="-812.95" width="217.5" height="10.2" as="geometry" />
        </mxCell>
        <mxCell id="IMbqO5Cv_9zsQHXl01Jr-10" value="" style="pointerEvents=1;shadow=0;dashed=0;html=1;strokeColor=none;fillColor=#4495D1;labelPosition=center;verticalLabelPosition=bottom;verticalAlign=top;align=center;outlineConnect=0;shape=mxgraph.veeam.ram;rotation=90;" vertex="1" parent="1">
          <mxGeometry x="414.00000000000006" y="-812.95" width="217.5" height="10.2" as="geometry" />
        </mxCell>
        <mxCell id="IMbqO5Cv_9zsQHXl01Jr-13" value="&lt;h1 style=&quot;font-size: 14px;&quot; class=&quot;title-1&quot;&gt;&lt;font color=&quot;#009900&quot; style=&quot;font-size: 10px;&quot;&gt;MSI GeForce RTX 3070&amp;nbsp;&lt;/font&gt;&lt;/h1&gt;&lt;h1 style=&quot;font-size: 14px;&quot; class=&quot;title-1&quot;&gt;&lt;font color=&quot;#009900&quot; style=&quot;font-size: 10px;&quot;&gt;SUPRIM X 8G LHR&lt;/font&gt;&lt;/h1&gt;" style="text;html=1;align=center;verticalAlign=middle;resizable=0;points=[];autosize=1;strokeColor=none;fillColor=none;" vertex="1" parent="1">
          <mxGeometry x="9" y="-705" width="140" height="80" as="geometry" />
        </mxCell>
        <mxCell id="IMbqO5Cv_9zsQHXl01Jr-16" style="edgeStyle=orthogonalEdgeStyle;rounded=0;orthogonalLoop=1;jettySize=auto;html=1;" edge="1" parent="1" source="IMbqO5Cv_9zsQHXl01Jr-14" target="IMbqO5Cv_9zsQHXl01Jr-13">
          <mxGeometry relative="1" as="geometry" />
        </mxCell>
        <mxCell id="IMbqO5Cv_9zsQHXl01Jr-27" style="edgeStyle=orthogonalEdgeStyle;rounded=0;orthogonalLoop=1;jettySize=auto;html=1;fillColor=#008a00;strokeColor=#005700;entryX=0.721;entryY=0.563;entryDx=0;entryDy=0;entryPerimeter=0;" edge="1" parent="1" source="IMbqO5Cv_9zsQHXl01Jr-14" target="IMbqO5Cv_9zsQHXl01Jr-13">
          <mxGeometry relative="1" as="geometry" />
        </mxCell>
        <mxCell id="IMbqO5Cv_9zsQHXl01Jr-14" value="" style="shape=folder;fontStyle=1;tabWidth=80;tabHeight=35;tabPosition=left;html=1;boundedLbl=1;whiteSpace=wrap;fillColor=#008a00;strokeColor=#005700;fontColor=#ffffff;" vertex="1" parent="1">
          <mxGeometry x="290" y="-705" width="130" height="40" as="geometry" />
        </mxCell>
        <mxCell id="IMbqO5Cv_9zsQHXl01Jr-17" value="" style="html=1;strokeWidth=1;shadow=0;dashed=0;shape=mxgraph.ios7.misc.wifi;fillColor=#76608a;strokeColor=#432D57;buttonText=;strokeColor2=#222222;fontColor=#ffffff;fontSize=8;verticalLabelPosition=bottom;verticalAlign=top;align=center;sketch=0;" vertex="1" parent="1">
          <mxGeometry x="220" y="-760" width="40" height="40" as="geometry" />
        </mxCell>
        <mxCell id="IMbqO5Cv_9zsQHXl01Jr-18" value="" style="shape=mxgraph.cisco.wireless.antenna;html=1;pointerEvents=1;dashed=0;fillColor=#036897;strokeColor=#ffffff;strokeWidth=2;verticalLabelPosition=bottom;verticalAlign=top;align=center;outlineConnect=0;" vertex="1" parent="1">
          <mxGeometry x="9" y="-790" width="50" height="49" as="geometry" />
        </mxCell>
        <mxCell id="IMbqO5Cv_9zsQHXl01Jr-21" style="edgeStyle=orthogonalEdgeStyle;rounded=0;orthogonalLoop=1;jettySize=auto;html=1;entryX=0.54;entryY=1;entryDx=0;entryDy=0;entryPerimeter=0;fillColor=#76608a;strokeColor=#432D57;" edge="1" parent="1" source="IMbqO5Cv_9zsQHXl01Jr-17" target="IMbqO5Cv_9zsQHXl01Jr-18">
          <mxGeometry relative="1" as="geometry" />
        </mxCell>
        <mxCell id="IMbqO5Cv_9zsQHXl01Jr-25" value="&lt;font color=&quot;#c061cb&quot;&gt;Wifi Antena&lt;br&gt;x2&lt;br&gt;&lt;/font&gt;" style="text;html=1;align=center;verticalAlign=middle;resizable=0;points=[];autosize=1;strokeColor=none;fillColor=none;" vertex="1" parent="1">
          <mxGeometry x="50" y="-760" width="80" height="40" as="geometry" />
        </mxCell>
        <mxCell id="IMbqO5Cv_9zsQHXl01Jr-54" value="" style="edgeStyle=orthogonalEdgeStyle;rounded=0;orthogonalLoop=1;jettySize=auto;html=1;" edge="1" parent="1" source="IMbqO5Cv_9zsQHXl01Jr-37" target="IMbqO5Cv_9zsQHXl01Jr-53">
          <mxGeometry relative="1" as="geometry" />
        </mxCell>
        <mxCell id="IMbqO5Cv_9zsQHXl01Jr-37" value="Samsung SSD 980 &lt;br&gt;PRO M.2 &lt;br&gt;PCIe NVMe &lt;font color=&quot;#000000&quot;&gt;&lt;b&gt;2&lt;/b&gt;&lt;/font&gt; To" style="text;html=1;align=center;verticalAlign=middle;resizable=0;points=[];autosize=1;strokeColor=#3A5431;fillColor=#6d8764;fontColor=#ffffff;" vertex="1" parent="1">
          <mxGeometry y="-520" width="130" height="60" as="geometry" />
        </mxCell>
        <mxCell id="IMbqO5Cv_9zsQHXl01Jr-39" style="edgeStyle=orthogonalEdgeStyle;rounded=0;orthogonalLoop=1;jettySize=auto;html=1;fillColor=#6d8764;strokeColor=#3A5431;" edge="1" parent="1" source="IMbqO5Cv_9zsQHXl01Jr-38">
          <mxGeometry relative="1" as="geometry">
            <mxPoint x="120" y="-490" as="targetPoint" />
          </mxGeometry>
        </mxCell>
        <mxCell id="IMbqO5Cv_9zsQHXl01Jr-51" value="" style="edgeStyle=orthogonalEdgeStyle;rounded=0;orthogonalLoop=1;jettySize=auto;html=1;" edge="1" parent="1" source="IMbqO5Cv_9zsQHXl01Jr-38" target="IMbqO5Cv_9zsQHXl01Jr-50">
          <mxGeometry relative="1" as="geometry" />
        </mxCell>
        <mxCell id="IMbqO5Cv_9zsQHXl01Jr-38" value="" style="sketch=0;pointerEvents=1;shadow=0;dashed=0;html=1;strokeColor=#C73500;fillColor=#33FFFF;aspect=fixed;labelPosition=center;verticalLabelPosition=bottom;verticalAlign=top;align=center;outlineConnect=0;shape=mxgraph.vvd.ssd;fontColor=#000000;" vertex="1" parent="1">
          <mxGeometry x="430" y="-625" width="56.34" height="40" as="geometry" />
        </mxCell>
        <mxCell id="IMbqO5Cv_9zsQHXl01Jr-40" value="&lt;font style=&quot;font-size: 18px;&quot;&gt;CG&lt;/font&gt;" style="text;html=1;align=center;verticalAlign=middle;resizable=0;points=[];autosize=1;strokeColor=none;fillColor=none;" vertex="1" parent="1">
          <mxGeometry x="307.34" y="-710" width="50" height="40" as="geometry" />
        </mxCell>
        <mxCell id="IMbqO5Cv_9zsQHXl01Jr-41" value="&lt;h1 style=&quot;font-size: 14px;&quot; class=&quot;title-1&quot;&gt;&lt;font color=&quot;#ff8000&quot;&gt;Intel Core i7-13700KF&lt;/font&gt;&lt;/h1&gt;" style="text;html=1;align=center;verticalAlign=middle;resizable=0;points=[];autosize=1;strokeColor=none;fillColor=none;" vertex="1" parent="1">
          <mxGeometry x="328.63" y="-1100" width="170" height="50" as="geometry" />
        </mxCell>
        <mxCell id="IMbqO5Cv_9zsQHXl01Jr-49" style="edgeStyle=orthogonalEdgeStyle;rounded=0;orthogonalLoop=1;jettySize=auto;html=1;fillColor=#f0a30a;strokeColor=#BD7000;" edge="1" parent="1" source="IMbqO5Cv_9zsQHXl01Jr-45" target="IMbqO5Cv_9zsQHXl01Jr-47">
          <mxGeometry relative="1" as="geometry" />
        </mxCell>
        <mxCell id="IMbqO5Cv_9zsQHXl01Jr-45" value="" style="image;aspect=fixed;html=1;points=[];align=center;fontSize=12;image=img/lib/azure2/general/Power.svg;" vertex="1" parent="1">
          <mxGeometry x="610" y="-858.36" width="14" height="21.64" as="geometry" />
        </mxCell>
        <mxCell id="IMbqO5Cv_9zsQHXl01Jr-46" value="" style="image;aspect=fixed;html=1;points=[];align=center;fontSize=12;image=img/lib/azure2/general/Power.svg;" vertex="1" parent="1">
          <mxGeometry x="730" y="-893.91" width="23" height="35.55" as="geometry" />
        </mxCell>
        <mxCell id="IMbqO5Cv_9zsQHXl01Jr-47" value="&amp;nbsp;DARK POWER PRO 13 1600W" style="text;html=1;align=center;verticalAlign=middle;resizable=0;points=[];autosize=1;strokeColor=none;fillColor=none;rotation=90;" vertex="1" parent="1">
          <mxGeometry x="641.5" y="-790" width="200" height="30" as="geometry" />
        </mxCell>
        <mxCell id="IMbqO5Cv_9zsQHXl01Jr-55" style="edgeStyle=orthogonalEdgeStyle;rounded=0;orthogonalLoop=1;jettySize=auto;html=1;fillColor=#fa6800;strokeColor=#C73500;" edge="1" parent="1" source="IMbqO5Cv_9zsQHXl01Jr-50" target="IMbqO5Cv_9zsQHXl01Jr-38">
          <mxGeometry relative="1" as="geometry" />
        </mxCell>
        <mxCell id="IMbqO5Cv_9zsQHXl01Jr-50" value="" style="sketch=0;pointerEvents=1;shadow=0;dashed=0;html=1;strokeColor=#C73500;fillColor=#33FFFF;aspect=fixed;labelPosition=center;verticalLabelPosition=bottom;verticalAlign=top;align=center;outlineConnect=0;shape=mxgraph.vvd.ssd;fontColor=#000000;" vertex="1" parent="1">
          <mxGeometry x="430" y="-720" width="56.34" height="40" as="geometry" />
        </mxCell>
        <mxCell id="IMbqO5Cv_9zsQHXl01Jr-53" value="Samsung SSD 980 &lt;br&gt;PRO M.2 &lt;br&gt;PCIe NVMe &lt;b&gt;&lt;font color=&quot;#000000&quot;&gt;1&lt;/font&gt;&lt;/b&gt; To" style="text;html=1;align=center;verticalAlign=middle;resizable=0;points=[];autosize=1;strokeColor=#3A5431;fillColor=#6d8764;fontColor=#ffffff;" vertex="1" parent="1">
          <mxGeometry y="-600" width="130" height="60" as="geometry" />
        </mxCell>
      </root>
    </mxGraphModel>
  </diagram>
</mxfile>
